# xmcd
#
# Track frame offsets:
#        150
#        20395
#        36887
#        58660
#        80022
#        101647
#        121885
#        139852
#        160410
#        179327
#
# Disc length: 2667 seconds
#
# Revision: 0
# Processed by: cddbd v1.5.1PL0 Copyright (c) Steve Scherf et al.
# Submitted via: ExactAudioCopy v0.95a5
#
DISCID=840a690a
DTITLE=F.L.A.G.S. - F.L.A.G.S.
DYEAR=1995
DGENRE=Pop
TTITLE0=I Love To Walk
TTITLE1=Baby Face
TTITLE2=9 to 5
TTITLE3=Perfect Love
TTITLE4=Refuse
TTITLE5=Spooky
TTITLE6=Baby, Now That I've Found You
TTITLE7=Soul Kitchen
TTITLE8=Eden Rock
TTITLE9=Monkey See, Monkey Do
EXTD=
EXTT0=
EXTT1=
EXTT2=
EXTT3=
EXTT4=
EXTT5=
EXTT6=
EXTT7=
EXTT8=
EXTT9=
PLAYORDER=
